<?xml version="1.0" encoding="utf-8"?>
<!-- Generator: Adobe Illustrator 27.5.0, SVG Export Plug-In . SVG Version: 6.00 Build 0)  -->
<svg version="1.1" xmlns="http://www.w3.org/2000/svg" xmlns:xlink="http://www.w3.org/1999/xlink" x="0px" y="0px"
	 viewBox="0 0 3710 3710" style="enable-background:new 0 0 3710 3710;" xml:space="preserve">
<g id="Background">
	<g>
		<g>
			<rect style="fill:#FFFFFF;" width="3710" height="3710"/>
		</g>
	</g>
</g>
<g id="Illustration">
	<g>
		<linearGradient id="SVGID_1_" gradientUnits="userSpaceOnUse" x1="3579.5752" y1="4044.1589" x2="1119.5004" y2="988.9003">
			<stop  offset="0" style="stop-color:#DAE3FE"/>
			<stop  offset="1" style="stop-color:#E9EFFD"/>
		</linearGradient>
		<path style="fill:url(#SVGID_1_);" d="M2902.793,2839.275c-56.507,59.488-109.973,97.851-152.216,128.161
			c-496.555,356.284-1084.111,252.429-1208.983,227.066c-184.397-37.452-540.833-109.846-798.529-412.892
			C353.191,2323.127,413.9,1600.8,716.312,1123.982c55.316-87.218,347.511-571.299,941.395-648.931
			c359.413-46.982,778.372,47.775,1081.771,301.963C3376.34,1310.578,3331.002,2388.47,2902.793,2839.275z"/>
		<g>
			<g>
				<path style="fill:#91B3FA;" d="M678.688,501.628c-64.444,164.06-400.484,1134.111,453.155,1612.955
					c0,0,385.624-581.672-427.563-1616.759C697.166,488.768,682.898,490.909,678.688,501.628z"/>
				<path style="opacity:0.5;fill:#FFFFFF;" d="M729.524,676.747c-1.182,59.153,0.104,118.451,2.562,177.619
					c2.508,59.184,6.446,118.306,11.852,177.289c10.855,117.947,27.29,235.435,51.371,351.361
					c24.196,115.836,55.888,230.328,99.669,340.18c10.852,27.488,22.748,54.546,35.32,81.264
					c12.537,26.739,26.096,52.986,40.632,78.66c28.866,51.464,62.175,100.407,99.976,145.554l0.031,0.037
					c1.969,2.351,1.659,5.853-0.693,7.821c-2.351,1.969-5.853,1.659-7.822-0.692l-0.016-0.02
					c-38.12-45.941-71.565-95.592-100.462-147.654c-14.552-25.976-28.103-52.501-40.611-79.494
					c-12.544-26.974-24.397-54.268-35.19-81.972c-43.547-110.717-74.828-225.797-98.576-342.091
					c-23.629-116.383-39.565-234.191-49.908-352.395c-5.149-59.111-8.827-118.344-11.072-177.63
					c-2.194-59.294-3.218-118.602-1.764-177.991c0.032-1.298,1.11-2.325,2.409-2.293c1.299,0.032,2.326,1.111,2.293,2.409
					L729.524,676.747z"/>
			</g>
			<g>
				<path style="fill:#BDD0FB;" d="M460.228,1193.254c-16.24,98.974-87.228,678.8,444.907,843.148
					c0,0,144.998-369.691-431.124-848.323C468.971,1183.891,461.289,1186.788,460.228,1193.254z"/>
				<path style="opacity:0.5;fill:#FFFFFF;" d="M510.071,1282.034c6.681,32.23,14.659,64.286,23.115,96.151
					c8.518,31.862,17.754,63.532,27.631,94.993c9.855,31.47,20.498,62.688,31.82,93.646c11.375,30.936,23.27,61.688,36.296,91.954
					c25.851,60.596,55.078,119.794,89.163,176.053c4.099,7.131,8.726,13.928,13.079,20.898l6.622,10.395
					c2.204,3.467,4.61,6.797,6.904,10.202c4.675,6.75,9.208,13.604,13.997,20.269l14.646,19.789
					c19.984,26.022,41.398,50.91,64.594,74l0.052,0.052c2.13,2.119,2.138,5.563,0.018,7.693c-2.119,2.129-5.564,2.137-7.693,0.018
					l-0.03-0.029c-23.443-23.704-44.972-49.138-64.997-75.649l-14.661-20.142c-4.79-6.779-9.316-13.738-13.986-20.597
					c-2.291-3.458-4.694-6.846-6.892-10.362l-6.603-10.544c-4.337-7.068-8.952-13.97-13.029-21.19
					c-33.924-57.007-62.834-116.776-88.32-177.847c-12.843-30.504-24.538-61.467-35.706-92.598
					c-11.115-31.153-21.541-62.548-31.174-94.18c-9.653-31.626-18.66-63.446-26.945-95.452
					c-8.227-32.031-15.956-64.151-22.424-96.646c-0.249-1.248,0.562-2.461,1.81-2.709c1.242-0.248,2.449,0.553,2.706,1.791
					L510.071,1282.034z"/>
			</g>
		</g>
		<g>
			<g>
				<g>
					<path style="fill:#91B3FA;" d="M2347.812,1031.714c-1.487-0.562-2.594-1.932-2.717-3.59c-0.408-5.469-0.708-11.038-0.89-16.552
						c-0.075-2.265,1.731-4.132,4.034-4.171c5.584-0.125,4.073,5.446,5.177,20.246c0.17,2.261-1.557,4.202-3.855,4.333
						C2348.948,1032.015,2348.355,1031.919,2347.812,1031.714z"/>
					<path style="fill:#91B3FA;" d="M2345.865,960.007c1.022-10.487,2.482-21.061,4.34-31.427c0.399-2.225,2.562-3.684,4.832-3.257
						c6.18,1.198,2.15,4.681-0.865,35.589c-0.22,2.252-2.256,3.874-4.551,3.624C2347.296,964.28,2345.647,962.23,2345.865,960.007z
						 M2362.506,878.591c3.18-10.092,6.822-20.245,10.705-29.823c2.08-5.151,9.76-1.802,7.758,3.131
						c-3.863,9.552-7.376,19.348-10.488,29.226c-0.678,2.156-3.015,3.333-5.217,2.634
						C2363.038,883.05,2361.834,880.723,2362.506,878.591z M2395.552,802.407c5.174-9.16,10.788-18.229,16.688-26.958
						c3.045-4.498,9.999,0.133,6.972,4.61c-5.781,8.553-11.283,17.44-16.351,26.412
						C2400.196,811.191,2392.892,807.112,2395.552,802.407z M2444.309,740.473c-1.748-1.501-1.948-4.094-0.445-5.789
						c6.992-7.897,14.402-15.62,22.02-22.953c3.917-3.769,9.799,2.134,5.886,5.903c-7.464,7.185-14.725,14.753-21.578,22.489
						C2448.69,741.82,2446.052,741.977,2444.309,740.473z M2504.634,684.054c-1.406-1.816-1.065-4.385,0.762-5.74
						c8.512-6.311,17.383-12.365,26.369-17.994c4.626-2.884,9.183,4.039,4.56,6.939c-8.805,5.516-17.499,11.447-25.839,17.631
						C2508.661,686.243,2506.04,685.87,2504.634,684.054z M2577.83,643.121c-0.977-0.369-1.818-1.09-2.307-2.09
						c-1.007-2.052-0.144-4.494,1.931-5.453c9.666-4.469,19.624-8.612,29.599-12.317c2.146-0.796,4.565,0.275,5.41,2.398
						c0.841,2.121-0.214,4.485-2.358,5.282c-9.777,3.629-19.535,7.691-29.008,12.071
						C2580.034,643.503,2578.859,643.509,2577.83,643.121z M2656.599,616.03c-1.248-0.472-2.254-1.515-2.605-2.882
						c-0.565-2.205,0.79-4.415,3.022-4.937c10.398-2.431,21.033-4.487,31.609-6.109c2.269-0.353,4.429,1.18,4.816,3.422
						c0.389,2.237-1.137,4.335-3.409,4.683c-10.361,1.59-20.781,3.605-30.969,5.987
						C2658.215,616.393,2657.361,616.318,2656.599,616.03z M2736.846,601.638c-0.097-2.265,1.692-4.149,3.995-4.21
						c10.709-0.282,21.584-0.146,32.322,0.4c5.531,0.297,5.195,8.471-0.307,8.191c-10.518-0.536-21.172-0.667-31.666-0.391
						C2738.893,605.692,2736.943,603.908,2736.846,601.638z M3004.159,690.739c-24.992-19.086-30.612-18.777-27.183-23.951
						c1.248-1.888,3.827-2.391,5.766-1.141c9.022,5.845,17.928,12.118,26.473,18.643
						C3013.602,687.636,3008.561,694.093,3004.159,690.739z M2820.604,607.092c0.377-2.229,2.523-3.709,4.797-3.305
						c10.574,1.879,21.224,4.189,31.653,6.871c5.36,1.38,3.357,9.311-1.996,7.934c-10.22-2.627-20.657-4.893-31.019-6.734
						C2821.739,611.447,2820.231,609.297,2820.604,607.092z M2933.279,647.186c-28.284-13.672-33.79-12.266-31.512-18.056
						c1.444-3.672,5.893-2.299,5.392-2.278c10.046,3.942,20.043,8.311,29.71,12.981c2.081,1.006,2.962,3.467,1.971,5.496
						C2937.892,647.267,2935.492,648.221,2933.279,647.186z"/>
					<path style="fill:#91B3FA;" d="M3054.7,736.45c-9.583-10.235-15.529-13.703-11.543-17.609c1.616-1.586,4.259-1.574,5.9,0.054
						c10.336,10.186,15.52,14.248,11.541,17.84C3059.405,737.813,3056.271,738.122,3054.7,736.45z"/>
				</g>
				<g>
					<path style="fill:#91B3FA;" d="M3166.303,1035.385c-1.669-0.63-2.819-2.269-2.719-4.105c0.291-5.389,0.47-10.843,0.536-16.214
						c0.028-2.265,1.918-4.05,4.223-3.989c2.299,0.068,4.149,1.945,4.122,4.212c-0.068,5.482-0.252,11.047-0.547,16.547
						c-0.122,2.26-2.086,3.968-4.387,3.814C3167.101,1035.622,3166.688,1035.53,3166.303,1035.385z"/>
					<path style="fill:#91B3FA;" d="M2603.584,1379.823c-10.735-4.392-21.411-9.28-31.732-14.532
						c-2.06-1.047-2.891-3.525-1.855-5.533c2.919-5.657,5.283-0.352,36.693,12.499c2.14,0.874,3.178,3.277,2.319,5.367
						C2607.51,1381.275,2603.082,1379.839,2603.584,1379.823z M2654.319,1392.761c1.581-6.155,5.231-1.453,38.441,4.419
						c2.281,0.391,3.814,2.537,3.44,4.763c-0.375,2.23-2.522,3.711-4.794,3.31c-11.365-2.008-22.824-4.522-34.058-7.47
						C2655.096,1397.19,2653.76,1394.936,2654.319,1392.761z M2523.193,1336.268c-9.508-6.582-18.865-13.646-27.804-20.997
						c-1.78-1.464-2.038-4.053-0.574-5.782c4.124-4.874,5.238,0.802,33.114,20.094c1.897,1.314,2.376,3.875,1.069,5.721
						C2527.688,1337.147,2525.093,1337.578,2523.193,1336.268z M2746.328,1411.082c-1.63-0.616-2.772-2.193-2.725-3.996
						c0.06-2.263,1.976-4.022,4.28-3.929c11.336,0.458,22.804,0.446,34.084-0.036c2.306-0.098,4.275,1.656,4.41,3.918
						c0.136,2.265-1.619,4.178-3.919,4.276c-11.517,0.493-23.222,0.505-34.793,0.037
						C2747.197,1411.333,2746.745,1411.239,2746.328,1411.082z M2836.224,1404.898c-1.317-0.497-2.358-1.633-2.652-3.092
						c-0.448-2.227,1.021-4.363,3.283-4.771c11.094-1.995,22.24-4.486,33.13-7.401c2.216-0.593,4.525,0.699,5.163,2.885
						c0.635,2.187-0.644,4.44-2.857,5.032c-11.114,2.976-22.49,5.516-33.815,7.555
						C2837.695,1405.247,2836.921,1405.162,2836.224,1404.898z M2922.273,1379.453c-1.022-0.386-1.896-1.16-2.372-2.225
						c-0.931-2.085,0.024-4.493,2.131-5.377c10.354-4.341,20.645-9.172,30.588-14.357c2.024-1.052,4.556-0.284,5.662,1.72
						c1.104,2.005,0.359,4.485-1.664,5.54c-10.146,5.291-20.647,10.219-31.214,14.651
						C2924.372,1379.836,2923.254,1379.824,2922.273,1379.453z M3000.354,1336.089c-0.737-0.279-1.408-0.765-1.91-1.441
						c-1.367-1.844-0.972-4.405,0.884-5.722c9.114-6.466,18.055-13.401,26.578-20.607c1.733-1.467,4.367-1.26,5.887,0.471
						c1.519,1.726,1.345,4.314-0.39,5.78c-8.697,7.356-17.821,14.433-27.123,21.033
						C3003.104,1336.437,3001.627,1336.57,3000.354,1336.089z M3065.411,1276.107c-4.896-4.249,0.867-5.099,20.825-31.702
						c3.25-4.334,9.997,0.595,6.742,4.933c-6.809,9.076-14.104,17.976-21.681,26.446
						C3069.792,1277.464,3067.16,1277.626,3065.411,1276.107z M3117.432,1204.31c-5.715-3.095-0.33-5.137,13.127-35.525
						c2.182-4.926,9.856-1.586,7.66,3.367c-4.592,10.37-9.686,20.654-15.14,30.566
						C3121.974,1204.728,3119.408,1205.4,3117.432,1204.31z M3151.612,1122.725c-2.018-0.762-3.16-2.926-2.568-4.989
						c3.065-10.723,5.699-21.662,7.824-32.512c0.436-2.217,2.622-3.641,4.886-3.181c2.269,0.475,3.744,2.633,3.311,4.851
						c-2.17,11.072-4.857,22.232-7.987,33.172c-0.62,2.172-2.922,3.411-5.142,2.766
						C3151.825,1122.802,3151.717,1122.765,3151.612,1122.725z"/>
					<path style="fill:#91B3FA;" d="M2454.087,1276.319c-9.868-10.655-14.844-14.932-10.697-18.335
						c4.314-3.543,6.729,1.95,16.83,12.864c1.564,1.688,1.456,4.281-0.237,5.791
						C2458.289,1278.151,2455.649,1278.006,2454.087,1276.319z"/>
				</g>
				<g>
					<g>
						<path style="fill:#91B3FA;" d="M2499.71,1172.64l59.301-7.344c18.067,21.252,39.668,39.878,64.307,54.867
							c2.313,57.18-1.577,61.354,4.535,63.391l68.342,22.768c1.997,0.664,4.185,0.017,5.446-1.612l35.992-46.463
							c28.684,2.772,57.1,0.812,84.252-5.378l43.141,41.471c1.512,1.453,3.782,1.817,5.651,0.907l63.974-31.166
							c1.87-0.911,2.928-2.896,2.634-4.943l-8.367-58.409c21.349-17.439,39.971-38.395,54.85-62.39l59.839-0.222
							c2.1-0.007,3.941-1.323,4.588-3.276l22.13-66.843c0.647-1.954-0.045-4.114-1.722-5.38l-47.819-36.087
							c2.388-28.157-0.037-56.122-6.745-82.908c39.7-41.662,45.281-41.698,42.378-47.326c-33.141-61.588-31.253-66.83-37.747-66.028
							l-59.301,7.343c-18.066-21.253-39.668-39.878-64.307-54.867c-2.312-57.146,1.58-61.352-4.534-63.392
							c-68.29-21.454-69.921-26.152-73.79-21.155l-35.993,46.464c-28.683-2.775-57.1-0.814-84.253,5.376
							c-42.465-39.176-43.023-45.188-48.791-42.377c-62.761,31.954-67.51,29.8-66.607,36.109l8.367,58.409
							c-21.35,17.44-39.972,38.395-54.85,62.39c-57.12,1.384-62.41-2.605-64.428,3.5c-20.704,66.517-25.58,68.316-20.408,72.222
							l47.818,36.087c-2.387,28.155,0.038,56.121,6.745,82.908c-39.566,41.521-45.291,41.668-42.378,47.326
							C2495.104,1168.2,2493.216,1173.442,2499.71,1172.64z"/>
					</g>
					<g>
						<path style="fill:#BDD0FB;" d="M2689.298,995.882c2.543-37.841,35.966-66.127,74.505-63.055
							c38.534,3.084,67.823,36.358,65.283,74.199c-2.545,37.84-35.966,66.127-74.505,63.057l0,0
							C2716.032,1067.011,2686.756,1033.714,2689.298,995.882z M2754.992,1063.95l0.039,0.015L2754.992,1063.95z M2762.979,945.093
							c-31.281-2.495-59.071,20.24-61.189,51.785c-2.09,31.079,21.961,58.426,53.615,60.94
							c31.651,2.522,59.102-20.709,61.189-51.787C2818.686,974.906,2794.574,947.605,2762.979,945.093z"/>
					</g>
					<path style="fill:#BDD0FB;" d="M2698.22,1165.327L2698.22,1165.327c-9.711-3.668-19.098-8.137-27.986-13.335
						c-2.673-1.563-3.771-4.745-2.738-7.485c0.124-0.327,0.277-0.647,0.462-0.957c1.734-2.914,5.574-3.852,8.554-2.11
						c10.223,5.977,21.163,10.92,32.506,14.707l0,0c85.466,28.47,177.347-14.546,208.184-96.184
						c0.787-2.085,1.534-4.196,2.242-6.329c28.552-86.247-19.983-179.242-107.484-208.418
						c-87.381-29.11-181.905,16.504-210.425,102.513c-16.948,51.203-2.136,85.563-4.127,90.834
						c-2.151,5.696-10.58,5.03-11.972-0.919c-7.608-32.498-5.915-67.549,6.601-100.687
						c54.012-142.984,257.486-151.692,328.393-14.193c21.822,42.313,25.701,90.199,10.92,134.838
						c-0.763,2.31-1.574,4.597-2.427,6.861c-15.658,41.466-46.227,74.896-86.738,94.633c-42.722,20.81-91.385,23.899-137.023,8.695
						C2702.831,1167.018,2700.515,1166.194,2698.22,1165.327z"/>
				</g>
			</g>
			<g>
				<g>
					<path style="fill:#91B3FA;" d="M2021.551,1131.161c11.605,11.87,25.188,21.975,40.408,29.733l3.219,35.378
						c0.355,3.926,3.61,2.167,43.613,12.761c3.698,0.909,3.059-2.438,22.423-31.094c17.083,0.191,33.802-2.455,49.592-7.583
						l27.31,22.755c3.036,2.525,4.085-1.021,39.863-21.816c1.067-0.646,1.606-1.896,1.344-3.113l-7.481-34.751
						c11.87-11.605,21.974-25.188,29.732-40.408c33.745-3.782,37.022-1.664,37.95-5.43c9.369-41.174,12.162-42.474,8.938-44.555
						l-29.843-19.271c0.192-17.083-2.454-33.802-7.583-49.591l22.755-27.31c2.524-3.028-1.02-4.084-21.816-39.862
						c-1.959-3.245-3.739-0.469-37.864,6.137c-11.605-11.871-25.188-21.975-40.408-29.733l-3.219-35.378
						c-0.358-3.93-3.611-2.167-43.614-12.761c-3.677-0.906-2.961,2.294-22.422,31.095c-17.083-0.193-33.804,2.455-49.592,7.583
						l-27.309-22.755c-0.957-0.798-2.316-0.9-3.382-0.255l-36.481,22.071c-1.066,0.645-1.606,1.895-1.344,3.114l7.481,34.751
						c-11.87,11.606-21.974,25.188-29.733,40.408c-33.745,3.782-37.026,1.664-37.949,5.431c-9.366,41.158-12.164,42.47-8.938,44.554
						l29.843,19.271c-0.191,17.082,2.455,33.802,7.583,49.591c-21.188,26.535-25.023,27.362-23.01,30.691l22.072,36.482
						C1985.66,1140.559,1987.599,1137.732,2021.551,1131.161z"/>
				</g>
				<g>
					<g>
						<path style="fill:#BDD0FB;" d="M2088.341,1022.416c-0.144-24.589,19.633-44.61,44.227-44.755
							c24.581-0.147,44.608,19.631,44.754,44.222c0.145,24.531-19.694,44.61-44.226,44.757l0,0
							C2108.563,1066.783,2088.489,1046.952,2088.341,1022.416z M2133.055,1060.011l0.041,0.015L2133.055,1060.011z
							 M2101.601,1022.335c0.107,17.224,14.205,31.147,31.415,31.047l0,0c27.653-0.168,41.507-33.938,21.769-53.445
							C2135.131,980.519,2101.435,994.504,2101.601,1022.335z"/>
					</g>
					<g>
						<path style="fill:#91B3FA;" d="M1914.778,1104.309c-2.109-5.588-4.025-11.339-5.695-17.094
							c-0.681-2.345,0.667-4.796,3.012-5.477c5.9-1.714,5.52,5.037,10.953,19.452c0.863,2.285-0.292,4.834-2.576,5.695
							C1918.199,1107.743,1915.643,1106.603,1914.778,1104.309z"/>
						<path style="fill:#91B3FA;" d="M1899.958,1028.831c-0.335-11.731,0.2-24.008,1.773-36.367c0.739-5.813,9.505-4.667,8.77,1.116
							c-4.074,32.019,1.395,39.34-6.001,39.546C1902.04,1033.192,1900.027,1031.258,1899.958,1028.831z M1919.04,941.018
							c-2.265-0.911-3.363-3.485-2.454-5.751c4.518-11.234,9.965-22.21,16.195-32.622c3.006-5.014,10.59-0.482,7.588,4.541
							c-5.993,10.015-11.235,20.572-15.578,31.378C1923.191,942.541,1918.507,941.042,1919.04,941.018z M1970.813,863.482
							c-0.58-0.219-1.121-0.562-1.584-1.029c-1.715-1.739-1.694-4.537,0.043-6.252c8.632-8.513,17.997-16.41,27.834-23.471
							c1.981-1.42,4.749-0.967,6.168,1.012c1.424,1.982,0.971,4.746-1.012,6.167c-9.465,6.796-18.475,14.395-26.78,22.586
							C1974.211,863.746,1972.378,864.073,1970.813,863.482z M2049.091,812.904c-1.137-0.429-2.093-1.323-2.563-2.546
							c-0.879-2.277,0.255-4.836,2.534-5.713c11.304-4.359,23.047-7.853,34.904-10.384c2.39-0.507,4.737,1.014,5.247,3.403
							c0.508,2.386-1.013,4.735-3.402,5.244c-11.403,2.432-22.698,5.791-33.57,9.984
							C2051.187,813.299,2050.071,813.274,2049.091,812.904z M2138.222,793.558c0.104-2.439,2.163-4.335,4.602-4.232
							c12.146,0.511,24.309,1.976,36.157,4.356c5.718,1.121,4.008,9.82-1.742,8.667c-11.395-2.29-23.099-3.7-34.784-4.189
							C2139.957,798.046,2138.125,795.948,2138.222,793.558z"/>
						<path style="fill:#91B3FA;" d="M2246.527,828.877c-13.969-8.235-19.906-8.768-17.283-14.127
							c1.073-2.193,3.671-3.133,5.913-2.028c5.35,2.615,10.685,5.489,15.861,8.54c2.102,1.239,2.802,3.949,1.562,6.054
							C2251.359,829.385,2248.678,830.132,2246.527,828.877z"/>
					</g>
					<g>
						<path style="fill:#91B3FA;" d="M2352.656,977.897c-3.199-15.961-6.753-20.687-1.008-22.307
							c2.353-0.664,4.791,0.704,5.455,3.052c1.62,5.734,3.042,11.628,4.22,17.518c0.479,2.394-1.072,4.724-3.465,5.202
							C2355.473,981.842,2353.135,980.294,2352.656,977.897z"/>
						<path style="fill:#91B3FA;" d="M2072.042,1242.558c1.807-7.116,7.531-0.324,39.321,2.698c5.806,0.54,5,9.355-0.837,8.802
							c-11.888-1.131-23.762-3.193-35.29-6.126C2072.908,1247.346,2071.431,1244.954,2072.042,1242.558z M2163.553,1248.686
							c-0.369-2.412,1.283-4.669,3.699-5.04c31.829-4.895,36.851-12.002,39.087-4.979c0.738,2.327-0.549,4.813-2.875,5.552
							c-11.349,3.604-23.08,6.353-34.871,8.165C2166.178,1252.753,2163.926,1251.099,2163.553,1248.686z M2250.094,1218.426
							c-3.9-6.244,4.893-5.617,29.133-26.537c4.429-3.814,10.208,2.871,5.777,6.694c-9.034,7.793-18.73,14.945-28.82,21.248
							C2254.118,1221.123,2251.388,1220.498,2250.094,1218.426z M2317.787,1156.558c-6.046-4.229,2.322-7.093,16.424-35.825
							c2.571-5.244,10.516-1.362,7.938,3.893c-5.246,10.689-11.371,21.065-18.206,30.842
							C2322.54,1157.473,2319.784,1157.951,2317.787,1156.558z M2352.345,1067.858c6.536-31.508,1.641-38.744,9.016-38.367
							c2.441,0.122,4.314,2.199,4.192,4.638c-0.607,11.941-2.137,23.892-4.552,35.526c-0.496,2.39-2.835,3.926-5.226,3.429
							C2353.389,1072.589,2351.848,1070.252,2352.345,1067.858z"/>
						<path style="fill:#91B3FA;" d="M2020.972,1226.535c-5.248-2.879-10.445-5.996-15.447-9.265
							c-2.042-1.336-2.616-4.075-1.281-6.12c3.364-5.144,7.45,0.212,20.979,7.633c2.14,1.175,2.923,3.861,1.75,6.002
							C2025.782,1226.957,2023.071,1227.692,2020.972,1226.535z"/>
					</g>
					<path style="fill:#BDD0FB;" d="M2085.707,1120.147c-3.78-1.819-4.804-5.874-3.29-8.981c1.606-3.292,5.608-4.653,8.866-3.054
						c6.11,2.979,12.595,5.327,19.279,6.973c1.441,0.071,35.999,11.102,72.828-11.109c73.03-44.189,56.156-155.415-26.821-175.825
						c-47.739-11.747-96.084,14.507-113.036,59.401c-17.077,45.213,7.342,66.381-6.388,70.598c-3.499,1.08-7.208-0.884-8.287-4.385
						c-5.816-18.877-6.38-39.042-1.635-58.318c14.394-58.536,73.79-94.622,132.516-80.171
						c63.192,15.545,99.664,83.162,76.212,145.251c-18.909,50.078-73.197,81.062-128.559,67.435l-0.002-0.001
						C2099.899,1126.116,2092.601,1123.488,2085.707,1120.147z"/>
				</g>
			</g>
		</g>
		<g>
			<g>
				
					<linearGradient id="SVGID_00000158717630115155276370000010544456733150554285_" gradientUnits="userSpaceOnUse" x1="1994.1086" y1="2698.6533" x2="2007.7166" y2="4025.4941">
					<stop  offset="0" style="stop-color:#09005D"/>
					<stop  offset="1" style="stop-color:#1A0F91"/>
				</linearGradient>
				<polygon style="fill:url(#SVGID_00000158717630115155276370000010544456733150554285_);" points="1729.152,2487.657 
					1673.345,2988.165 2320.811,2988.165 2236.477,2487.657 				"/>
				
					<linearGradient id="SVGID_00000179609147542432360560000004971093689188495276_" gradientUnits="userSpaceOnUse" x1="1979.9065" y1="895.1877" x2="1884.6447" y2="2657.5088">
					<stop  offset="0" style="stop-color:#09005D"/>
					<stop  offset="1" style="stop-color:#1A0F91"/>
				</linearGradient>
				<path style="fill:url(#SVGID_00000179609147542432360560000004971093689188495276_);" d="M602.507,1218.741v1179.547
					c0,97.033,77.324,176.384,174.325,178.885c430.828,11.109,1937.656,38.047,2347.776,32.001
					c70.489-1.039,127.591-57.447,129.625-127.914c7.908-274.025,20.752-932.963-26.779-1238.882
					c-10.01-64.423-64.388-112.598-129.552-114.682c-360.979-11.548-1958.316-48.216-2368.244-39.01
					C658.96,1090.274,602.507,1148.025,602.507,1218.741z"/>
				
					<linearGradient id="SVGID_00000026134616303025057670000013825119037167269760_" gradientUnits="userSpaceOnUse" x1="676.5203" y1="1799.3121" x2="3171.8381" y2="1799.3121">
					<stop  offset="0" style="stop-color:#4F52FF"/>
					<stop  offset="1" style="stop-color:#4042E2"/>
				</linearGradient>
				<path style="fill:url(#SVGID_00000026134616303025057670000013825119037167269760_);" d="M676.52,1212.999v1120.651
					c0,56.654,45.477,102.816,102.124,103.663l2286.961,28.255c56.161,0.839,102.197-44.344,102.406-100.512l3.826-1110.638
					c0.15-40.161-31.846-73.067-71.996-74.044L758.418,1133.07C713.513,1131.977,676.52,1168.081,676.52,1212.999z"/>
				<path style="fill:#91B3FA;" d="M717.03,1270.41v1033.043c0,52.225,43.867,94.779,98.509,95.559l2205.997,26.046
					c54.173,0.774,98.579-40.878,98.781-92.655l3.69-1023.813c0.145-37.021-30.719-67.355-69.447-68.256l-2258.531-43.605
					C752.713,1195.722,717.03,1229.004,717.03,1270.41z"/>
				<path style="fill:#91B3FA;" d="M3185.231,2512c-0.022,0-0.042,0-0.064,0l-2508.708-42.744c-2.029-0.037-3.647-1.71-3.612-3.739
					c0.033-2.029,1.688-3.629,3.737-3.614l2508.708,42.744c2.029,0.037,3.647,1.71,3.613,3.739
					C3188.871,2510.393,3187.23,2512,3185.231,2512z"/>
				
					<linearGradient id="SVGID_00000031171642321159400600000002257547506247900566_" gradientUnits="userSpaceOnUse" x1="1986.4707" y1="2399.98" x2="1986.4707" y2="3032.7827">
					<stop  offset="0" style="stop-color:#09005D"/>
					<stop  offset="1" style="stop-color:#1A0F91"/>
				</linearGradient>
				<path style="fill:url(#SVGID_00000031171642321159400600000002257547506247900566_);" d="M2460.274,3090.569h-947.61
					c-25.744,0-45.076-18.327-40.099-38.012l12.16-48.089c3.656-14.462,19.566-25.079,38.463-25.669l913.53-28.506
					c19.742-0.616,37.223,9.864,41.524,24.894l21.92,76.594C2505.859,3071.68,2486.434,3090.569,2460.274,3090.569z"/>
			</g>
			<path style="fill:#BDD0FB;" d="M3123.849,1353.007l0.158-44.126c0.145-37.021-30.719-67.5-69.447-68.401l-2258.833-43.677
				c-43.314-1.007-79.298,32.202-79.298,73.608v82.597H3123.849z"/>
			
				<linearGradient id="SVGID_00000071538186911341124660000016932475383665834380_" gradientUnits="userSpaceOnUse" x1="2931.9985" y1="1303.3632" x2="2972.2002" y2="1303.3632">
				<stop  offset="0" style="stop-color:#DAE3FE"/>
				<stop  offset="1" style="stop-color:#E9EFFD"/>
			</linearGradient>
			
				<circle style="fill:url(#SVGID_00000071538186911341124660000016932475383665834380_);" cx="2952.099" cy="1303.363" r="20.101"/>
			
				<linearGradient id="SVGID_00000169558740948974741980000006575988303334540419_" gradientUnits="userSpaceOnUse" x1="2864.2927" y1="1303.3632" x2="2904.4944" y2="1303.3632">
				<stop  offset="0" style="stop-color:#DAE3FE"/>
				<stop  offset="1" style="stop-color:#E9EFFD"/>
			</linearGradient>
			
				<circle style="fill:url(#SVGID_00000169558740948974741980000006575988303334540419_);" cx="2884.394" cy="1303.363" r="20.101"/>
			
				<linearGradient id="SVGID_00000008831635827693995010000017682802559951318705_" gradientUnits="userSpaceOnUse" x1="2788.437" y1="1303.3632" x2="2828.6384" y2="1303.3632">
				<stop  offset="0" style="stop-color:#DAE3FE"/>
				<stop  offset="1" style="stop-color:#E9EFFD"/>
			</linearGradient>
			
				<circle style="fill:url(#SVGID_00000008831635827693995010000017682802559951318705_);" cx="2808.538" cy="1303.363" r="20.101"/>
			<path style="fill:#BDD0FB;" d="M2407.762,2181.427l-1579.795-18.204c-24.102-0.278-43.495-19.895-43.495-43.998v-670.733
				c0-24.477,19.975-44.249,44.45-43.999l1579.795,16.113c24.125,0.246,43.553,19.873,43.553,43.999v672.823
				C2452.27,2161.928,2432.26,2181.709,2407.762,2181.427z"/>
			<path style="fill:#BDD0FB;" d="M3037.108,1705.703l-494.702-14.66c-22.974-0.681-41.245-19.501-41.245-42.485v-182.262
				c0-23.215,18.627-42.135,41.839-42.499l494.703-7.742c23.731-0.371,43.169,18.764,43.169,42.499v204.664
				C3080.871,1687.186,3061.065,1706.413,3037.108,1705.703z"/>
			<path style="fill:#BDD0FB;" d="M2999.349,2371.636l-459.523-13.618c-22.974-0.681-41.245-19.501-41.245-42.485l2.215-210.458
				c0.2-19.043,15.931-34.247,34.97-33.799l499.357,11.754c23.731-0.372,43.169,18.764,43.169,42.499v169.469
				C3078.292,2338.233,3042.565,2372.917,2999.349,2371.636z"/>
			<path style="fill:#BDD0FB;" d="M3034.529,2053.57l-494.702-15.634c-22.974-0.726-41.245-20.796-41.245-45.306l2.16-223.995
				c0.229-23.824,18.809-42.774,41.138-41.958l493.244,18.014c23.731-0.396,43.169,20.01,43.169,45.32v218.253
				C3078.292,2033.823,3058.486,2054.327,3034.529,2053.57z"/>
			<path style="fill:#BDD0FB;" d="M2426.869,2277.519l-1599.15-7.156c-13.887-0.062-25.102-8.576-25.102-19.057v-12.785
				c0-10.573,11.404-19.125,25.414-19.057l1599.15,7.754c13.882,0.067,25.089,8.579,25.089,19.057v12.188
				C2452.27,2269.032,2440.873,2277.582,2426.869,2277.519z"/>
			<path style="fill:#BDD0FB;" d="M1676.669,2365.26l-861.66-7.156c-7.483-0.062-13.525-8.576-13.525-19.057v-12.785
				c0-10.573,6.145-19.125,13.693-19.057l861.66,7.753c7.48,0.067,13.519,8.58,13.519,19.057v12.188
				C1690.356,2356.772,1684.215,2365.323,1676.669,2365.26z"/>
		</g>
		<g>
			<g>
				
					<linearGradient id="SVGID_00000018223841051994512850000003534001202500863388_" gradientUnits="userSpaceOnUse" x1="1295.7898" y1="2118.0254" x2="2222.5486" y2="2118.0254" gradientTransform="matrix(-0.9554 -0.2955 -0.2955 0.9554 5383.0181 888.7548)">
					<stop  offset="0" style="stop-color:#09005D"/>
					<stop  offset="1" style="stop-color:#1A0F91"/>
				</linearGradient>
				<path style="fill:url(#SVGID_00000018223841051994512850000003534001202500863388_);" d="M2386.121,1946.304l730.553,554.157
					c30.64,23.241,34.987,67.657,9.436,96.398l-4.196,4.719c-22.608,25.429-61.596,27.594-86.878,4.823l-684.976-616.928
					L2386.121,1946.304z"/>
				
					<linearGradient id="SVGID_00000109749237558512112430000015540119027117578889_" gradientUnits="userSpaceOnUse" x1="2610.7698" y1="1711.0364" x2="1528.9381" y2="1588.5651">
					<stop  offset="0" style="stop-color:#09005D"/>
					<stop  offset="1" style="stop-color:#1A0F91"/>
				</linearGradient>
				<path style="fill:url(#SVGID_00000109749237558512112430000015540119027117578889_);" d="M1611.296,1509.257
					c-75.829,245.229,65.149,506.623,314.881,583.844c249.732,77.221,513.65-58.973,589.478-304.201
					c75.827-245.225-65.149-506.622-314.88-583.844C1951.042,1127.835,1687.124,1264.032,1611.296,1509.257z M1677.718,1529.796
					c64.689-209.203,289.839-325.393,502.887-259.514c213.046,65.877,333.315,288.875,268.625,498.078
					c-64.689,209.205-289.84,325.393-502.885,259.515C1733.298,1961.997,1613.03,1739.002,1677.718,1529.796z"/>
				<g>
					<path style="fill:#BDD0FB;" d="M2464.5,1831.784c-0.856-0.388-1.235-1.398-0.846-2.256c4.547-9.997,8.755-20.295,12.512-30.613
						c0.322-0.882,1.296-1.343,2.185-1.019c0.885,0.324,1.341,1.299,1.019,2.185c-3.787,10.399-8.03,20.781-12.612,30.859
						c-0.302,0.664-0.98,1.041-1.667,0.995C2464.891,1831.921,2464.692,1831.874,2464.5,1831.784z M2500.288,1706.808
						c-0.935-0.114-1.598-0.964-1.482-1.899c3.664-29.791,4.136-60.068,1.403-89.99
						c-16.108-176.315-137.544-324.574-309.376-377.708c-80.135-24.779-164.909-26.607-245.17-5.285
						c-0.909,0.247-1.845-0.301-2.085-1.211c-0.24-0.909,0.3-1.843,1.211-2.085c80.876-21.485,166.307-19.641,247.049,5.323
						c85.854,26.548,160.728,77.231,216.529,146.574c54.502,67.726,87.434,148.671,95.236,234.083
						c2.755,30.163,2.28,60.683-1.416,90.716c-0.11,0.902-0.908,1.553-1.805,1.492
						C2500.35,1706.816,2500.319,1706.814,2500.288,1706.808z"/>
				</g>
				<path style="fill:#BDD0FB;" d="M3067.791,2602.322c0.056,0.004,0.115,0.004,0.173,0.001
					c27.917-0.917,45.594-11.24,52.538-30.677c6.99-19.561,0.21-41.826-16.872-55.406l-86.922-69.105
					c-0.73-0.597-1.805-0.463-2.394,0.271c-0.586,0.738-0.463,1.81,0.274,2.394l86.922,69.105
					c15.938,12.675,22.28,33.409,15.783,51.595c-6.428,17.987-23.062,27.55-49.442,28.419c-0.941,0.029-1.679,0.817-1.648,1.76
					C3066.234,2601.559,3066.929,2602.263,3067.791,2602.322z"/>
				<path style="fill:#FFFFFF;" d="M2988.746,2428.875c0.54,0.037,1.089-0.183,1.452-0.638c0.586-0.738,0.463-1.81-0.274-2.395
					l-11.266-8.957c-0.733-0.597-1.807-0.466-2.394,0.271c-0.586,0.738-0.463,1.81,0.274,2.394l11.266,8.957
					C2988.083,2428.733,2988.414,2428.853,2988.746,2428.875z"/>
			</g>
			<g>
				
					<linearGradient id="SVGID_00000000915914875700022510000001668528902940781195_" gradientUnits="userSpaceOnUse" x1="141.4697" y1="3315.8723" x2="382.0279" y2="2696.5898" gradientTransform="matrix(-1 0 0 1 3305.3694 0)">
					<stop  offset="0" style="stop-color:#FEBBBA"/>
					<stop  offset="1" style="stop-color:#FF928E"/>
				</linearGradient>
				<path style="fill:url(#SVGID_00000000915914875700022510000001668528902940781195_);" d="M2931.69,2644.717l85.208,21.302
					l-21.301,159.764c0,0,31.952,31.953,42.603,74.558c10.651,42.603,20.472,221.49,20.472,221.49l20.218,12.223l2.46,10.204
					l-58.822,79.09l9.754-62.949c1.549-9.992-1.134-30.258-0.289-30.683c-31.953-85.208-100.302-325.235-100.302-325.235V2644.717z"
					/>
				
					<linearGradient id="SVGID_00000116950820396204580540000005347964669944838313_" gradientUnits="userSpaceOnUse" x1="482.8253" y1="2438.1245" x2="259.2379" y2="3418.6748" gradientTransform="matrix(-1 0 0 1 3305.3694 0)">
					<stop  offset="0" style="stop-color:#FEBBBA"/>
					<stop  offset="1" style="stop-color:#FF928E"/>
				</linearGradient>
				<path style="fill:url(#SVGID_00000116950820396204580540000005347964669944838313_);" d="M2906.793,3145.353
					c0.922-0.015,1.828,0.058,2.756,0.001c-4.117-51.368-22.935-277.441-41.764-362.175
					c-21.302-95.859,31.953-287.577,31.953-287.577l95.86,95.86l-53.256,181.066c36.496,54.742-5.953,375.329-5.039,375.19
					l-0.058,0.712l13.896,19.107l-1.69,10.358l-84.888,50.093l33.401-54.241C2903.265,3165.138,2906.195,3155.376,2906.793,3145.353
					z"/>
				
					<linearGradient id="SVGID_00000179614973033389581630000010017056041226804897_" gradientUnits="userSpaceOnUse" x1="181.4953" y1="2092.4565" x2="364.6756" y2="2418.4092" gradientTransform="matrix(-1 0 0 1 3305.3694 0)">
					<stop  offset="0" style="stop-color:#FEBBBA"/>
					<stop  offset="1" style="stop-color:#FF928E"/>
				</linearGradient>
				<path style="fill:url(#SVGID_00000179614973033389581630000010017056041226804897_);" d="M3014.613,2070.462
					c0,0,186.639,258.979,0,391.766l-19.016-16.952c0,0,92.66-109.242,0-242.969L3014.613,2070.462z"/>
				
					<linearGradient id="SVGID_00000036227417885255826460000013904814886397908112_" gradientUnits="userSpaceOnUse" x1="664.8077" y1="384.8506" x2="868.9281" y2="-304.0542" gradientTransform="matrix(1 0 0 1 3079.3228 0)">
					<stop  offset="0" style="stop-color:#09005D"/>
					<stop  offset="1" style="stop-color:#1A0F91"/>
				</linearGradient>
				<path style="fill:url(#SVGID_00000036227417885255826460000013904814886397908112_);" d="M2858.971,3235.846h27.09
					c5.072,0,9.853-2.328,12.946-6.346c8.445-10.974,25.941-32.383,34.308-32.941c11.263-0.752,9.822,39.288,9.822,39.288h6.313
					l7.997-49.755c2.012-12.518-4.213-24.92-15.455-30.785l0,0c0,0-2.575,19.04-16.535,27.461
					c-13.96,8.423-56.808,38.583-56.808,38.583s-5.249-0.748-11.011,0.293C2849.092,3223.189,2850.286,3235.846,2858.971,3235.846z"
					/>
				
					<linearGradient id="SVGID_00000135649485419026952370000004028970804044076422_" gradientUnits="userSpaceOnUse" x1="-1750.421" y1="2709.3853" x2="-1546.3007" y2="2020.4807" gradientTransform="matrix(0.9218 -0.3878 0.3878 0.9218 3612.5071 -31.6312)">
					<stop  offset="0" style="stop-color:#09005D"/>
					<stop  offset="1" style="stop-color:#1A0F91"/>
				</linearGradient>
				<path style="fill:url(#SVGID_00000135649485419026952370000004028970804044076422_);" d="M3020.422,3232.759l24.969-10.505
					c4.673-1.966,8.179-5.967,9.472-10.87c3.529-13.389,11.355-39.908,18.85-43.668c10.089-5.062,24.288,32.406,24.288,32.406
					l5.819-2.448l-11.923-48.962c-2.999-12.32-13.547-21.336-26.183-22.383l0,0c0,0,5.01,18.549-4.592,31.725
					c-9.602,13.176-37.402,57.593-37.402,57.593s-5.127,1.345-10.035,4.539C3006.406,3224.922,3012.415,3236.127,3020.422,3232.759z
					"/>
				
					<linearGradient id="SVGID_00000110452522028756826990000006299322883802336663_" gradientUnits="userSpaceOnUse" x1="2338.6533" y1="3118.012" x2="2986.7344" y2="2520.9617">
					<stop  offset="0" style="stop-color:#E1473D"/>
					<stop  offset="1" style="stop-color:#E9605A"/>
				</linearGradient>
				<path style="fill:url(#SVGID_00000110452522028756826990000006299322883802336663_);" d="M2875.326,2333.784
					c0,0,3.133,22.739-1.457,85.251c-4.59,62.512-26.528,209.279-22.061,349.704c0,0,62.366,17.214,170.719,9.06
					c0,0,45.729-219.245,34.587-302.594c-11.139-83.349-71.568-143.144-71.568-143.144L2875.326,2333.784z"/>
				
					<linearGradient id="SVGID_00000102523202207726443260000002518162999851149729_" gradientUnits="userSpaceOnUse" x1="523.4361" y1="1852.835" x2="262.1352" y2="2097.9727" gradientTransform="matrix(-1 0 0 1 3305.3694 0)">
					<stop  offset="0" style="stop-color:#FEBBBA"/>
					<stop  offset="1" style="stop-color:#FF928E"/>
				</linearGradient>
				<polygon style="fill:url(#SVGID_00000102523202207726443260000002518162999851149729_);" points="2921.408,1980.832 
					2913.785,2070.462 2986.205,2070.462 2968.198,1933.647 				"/>
				
					<linearGradient id="SVGID_00000103980129785557742790000000045918396181482917_" gradientUnits="userSpaceOnUse" x1="3496.4937" y1="1601.4139" x2="3013.3857" y2="2104.9355">
					<stop  offset="0" style="stop-color:#FF928E"/>
					<stop  offset="1" style="stop-color:#FE7062"/>
				</linearGradient>
				<path style="fill:url(#SVGID_00000103980129785557742790000000045918396181482917_);" d="M3007.658,2058.069
					c-24.994-1.379-80.874-3.929-120.462-1.772c-20.842,1.135-38.302,16.089-42.566,36.523l-9.655,46.271
					c-3.597,17.234-3.059,35.076,1.569,52.063l38.782,142.362c0,0,34.494,20.729,110.221-1.454c0,0,66.504-158.588,39.281-260.036
					C3022.713,2064.149,3015.804,2058.518,3007.658,2058.069z"/>
				
					<linearGradient id="SVGID_00000152946912549174843480000004267864923266670762_" gradientUnits="userSpaceOnUse" x1="326.8634" y1="2050.8945" x2="862.9347" y2="2481.9067" gradientTransform="matrix(-1 0 0 1 3305.3694 0)">
					<stop  offset="0" style="stop-color:#FEBBBA"/>
					<stop  offset="1" style="stop-color:#FF928E"/>
				</linearGradient>
				<path style="fill:url(#SVGID_00000152946912549174843480000004267864923266670762_);" d="M2846.523,2084.52
					c-10.667,28.1-20.301,57.565-30.652,85.16c-5.263,13.812-10.602,27.351-16.313,39.786c-2.888,6.193-6.062,11.883-8.974,17.042
					c-2.916,5.107-6.199,9.355-7.909,11.311c-0.335,0.29,0.788,0.512,1.164,0.53c0.227,0.029-7.211,1.22-9.493,1.602l-8.915-0.053
					c-12.778-0.657-27.25-2.91-41.766-5.731c-29.281-5.46-59.723-13.125-90.981-18.924l-0.24-0.045
					c-5.98-1.11-11.729,2.84-12.839,8.821c-0.731,3.945,0.753,7.799,3.552,10.277c12.603,11.094,25.963,20.208,39.822,29.079
					c6.975,4.265,14.072,8.446,21.286,12.46c7.357,3.75,14.733,7.529,22.395,11.024c15.427,6.722,31.363,12.913,49.72,16.891
					c4.825,0.807,9.586,1.654,14.551,2.319c5.567,0.193,10.624,0.687,16.705,0.334c3.229-0.32,6.474-0.716,9.71-1.187
					c1.726-0.304,2.994-0.337,5.085-0.913c2.218-0.665,4.431-1.411,6.612-2.23c4.559-1.635,7.505-3.616,11.209-5.677
					c3.075-2.027,5.879-4.147,8.598-6.321c10.037-8.549,16.269-17.034,21.762-25.179c5.477-8.139,9.819-16.292,13.717-24.285
					c7.818-15.962,13.923-31.779,18.876-47.706c10.038-31.916,16.839-63.282,19.71-96.601c1.375-15.958-10.448-30.01-26.407-31.385
					c-13.208-1.138-25.111,6.765-29.599,18.572L2846.523,2084.52z"/>
				
					<linearGradient id="SVGID_00000034785851244230614640000007445063922751346839_" gradientUnits="userSpaceOnUse" x1="397.9742" y1="1962.451" x2="934.0436" y2="2393.4619" gradientTransform="matrix(-1 0 0 1 3305.3694 0)">
					<stop  offset="0" style="stop-color:#FEBBBA"/>
					<stop  offset="1" style="stop-color:#FF928E"/>
				</linearGradient>
				<path style="fill:url(#SVGID_00000034785851244230614640000007445063922751346839_);" d="M2642.522,2229.565l-12.923-30.677
					l-68.018-16.948c0,0-5.442,11.79,23.126,16.948c0,0-10.204,11.279-4.762,24.542
					C2585.387,2236.694,2643.203,2249.982,2642.522,2229.565z"/>
				
					<linearGradient id="SVGID_00000062876235186125614770000003619128188535593359_" gradientUnits="userSpaceOnUse" x1="490.3397" y1="2075.9521" x2="349.609" y2="1870.1666" gradientTransform="matrix(-1 0 0 1 3305.3694 0)">
					<stop  offset="0" style="stop-color:#FEBBBA"/>
					<stop  offset="1" style="stop-color:#FF928E"/>
				</linearGradient>
				<path style="fill:url(#SVGID_00000062876235186125614770000003619128188535593359_);" d="M2890.746,1877.318
					c-2.586,1.525-22.96,73.385-5.887,103.513c17.073,30.128,69.211-3.619,83.34-47.185
					C2982.328,1890.08,2959.627,1836.696,2890.746,1877.318z"/>
				
					<linearGradient id="SVGID_00000104698830902957240690000014508778554451477924_" gradientUnits="userSpaceOnUse" x1="553.3618" y1="1727.5083" x2="165.5004" y2="2197.0242" gradientTransform="matrix(-1 0 0 1 3305.3694 0)">
					<stop  offset="0" style="stop-color:#09005D"/>
					<stop  offset="1" style="stop-color:#1A0F91"/>
				</linearGradient>
				<path style="fill:url(#SVGID_00000104698830902957240690000014508778554451477924_);" d="M3042.952,1907.339
					c5.307,4.491,10.905,8.703,14.931,14.33c8.938,12.492,8.527,29.537,15.9,43.012c7.786,14.231,21.928,19.345,34.232,28.366
					c12.631,9.26,21.852,23.289,24.932,38.679c3.368,16.828-5.406,33.387-3.092,49.095c1.681,11.412,14.092,17.326,14.546,29.663
					c0.457,12.398-6.633,23.446-18.313,27.829c-6.639,2.492-14.663,2.858-19.268,8.251c-5.552,6.502-3.027,16.617-6.264,24.531
					c-9.589,23.439-34.188,7.715-49.751,3.691c-17.943-4.639-36.124,6.552-54.652,7.015c-24.252,0.605-47.055-20.236-48.627-44.445
					c-0.449-6.915,0.614-13.893-0.236-20.77c-1.715-13.859-9.957-20.309-19.63-28.725c-10.043-8.738-15.925-22.066-15.61-35.375
					c0.626-26.455,19.793-46.922,28.745-70.653c4.785-12.685,8.116-23.377,1.026-35.565c-7.331-12.6-19.568-21.99-31.489-29.958
					c-9.146-6.113-18.719-11.911-26-20.156c-7.282-8.245-12.034-19.613-9.419-30.299c7.188-29.37,61.402-47.098,87.967-42.701
					c19.849,3.285,35.499,12.653,45.843,29.974c8.598,14.397,15.053,32.538,25.563,45.672
					C3036.824,1901.971,3039.838,1904.703,3042.952,1907.339z"/>
			</g>
		</g>
		<g>
			
				<linearGradient id="SVGID_00000065063666898138218370000011026129018259614355_" gradientUnits="userSpaceOnUse" x1="1363.7511" y1="2061.2292" x2="737.7545" y2="3527.5598">
				<stop  offset="0" style="stop-color:#09005D"/>
				<stop  offset="1" style="stop-color:#1A0F91"/>
			</linearGradient>
			<path style="fill:url(#SVGID_00000065063666898138218370000011026129018259614355_);" d="M801.199,2128.164
				c-3.588,169.329-15.225,753.407-9.67,960.387c0.589,21.927,15.614,39.527,34.358,40.245
				c92.703,3.549,432.549,12.544,584.18,5.102c31.582-1.55,56.698-31.477,57.353-68.449c3.151-177.732,10.103-677.625-6.42-906.626
				c-1.98-27.437-20.389-49.287-43.809-52.029c-100.958-11.815-442.265-40.696-573.266-30.751
				C820.299,2077.836,801.786,2100.475,801.199,2128.164z"/>
			
				<linearGradient id="SVGID_00000062892401152423627100000014808879079748797342_" gradientUnits="userSpaceOnUse" x1="1234.1726" y1="2431.908" x2="1861.8372" y2="1656.2562">
				<stop  offset="0" style="stop-color:#4F52FF"/>
				<stop  offset="1" style="stop-color:#4042E2"/>
			</linearGradient>
			<path style="fill:url(#SVGID_00000062892401152423627100000014808879079748797342_);" d="M842.563,2180.115
				c-4.99,136.674-20.729,591.354-15.734,759.485c0.73,24.575,17.286,44.445,38.27,45.882
				c86.395,5.914,381.154,18.955,507.874,7.085c22.818-2.137,40.724-23.726,41.955-50.466
				c6.422-139.435,24.859-562.806,20.072-729.054c-0.764-26.521-18.325-48.18-40.918-50.553
				c-93.466-9.818-406.68-33.177-514.363-26.303C859.505,2137.481,843.427,2156.454,842.563,2180.115z"/>
			<path style="opacity:0.5;fill:#FFFFFF;" d="M1030.306,2105.63L1030.306,2105.63c0,5.196,3.461,9.481,7.896,9.752
				c21.896,1.342,83.577,5.137,111.144,7.008c5.435,0.369,9.701-5.346,8.67-11.6l-0.176-1.067c-0.704-4.267-3.729-7.479-7.428-7.875
				c-18.634-1.998-74.859-7.536-112.112-5.981C1033.826,2096.054,1030.306,2100.392,1030.306,2105.63z"/>
			<path style="fill:#91B3FA;" d="M1435.754,2264.773c-0.077-18.371-0.318-36.427-0.754-51.553
				c-0.764-26.521-18.325-48.266-40.917-50.639c-93.466-9.817-406.681-33.219-514.363-26.346
				c-20.214,1.291-36.292,20.414-37.156,44.075c-0.774,21.201-1.33,37.908-2.504,70.975L1435.754,2264.773z"/>
			<path style="fill:#91B3FA;" d="M1133.676,2556.067H890.07c-14.4,0-26.074-12.021-26.074-26.849v-213.904
				c0-13.552,10.835-24.446,23.992-24.123l245.863,6.051c13.524,0.333,24.319,11.718,24.319,25.648v207.954
				C1158.171,2544.774,1147.204,2556.067,1133.676,2556.067z"/>
			<path style="fill:#91B3FA;" d="M1398.042,2556.067h-209.365c-4.964,0-8.989-4.024-8.989-8.989v-242.224
				c0-3.874,3.141-7.014,7.014-7.014h211.814c3.898,0,7.059,3.16,7.059,7.059v243.635
				C1405.575,2552.695,1402.203,2556.067,1398.042,2556.067z"/>
			<path style="fill:#91B3FA;" d="M1398.338,2765.683H863.255c-4.424,0-8.011-3.587-8.011-8.011v-161.236c0-3.59,2.91-6.5,6.5-6.5
				h536.273c4.175,0,7.559,3.384,7.559,7.559v160.952C1405.575,2762.443,1402.335,2765.683,1398.338,2765.683z"/>
			<path style="fill:#91B3FA;" d="M1348.538,2964.083l-468.445-6.529c-13.886-0.194-25.03-10.321-25.03-22.747v-113.401
				c0-10.938,9.91-19.805,22.135-19.805h492.806c11.689,0,21.173,8.463,21.204,18.922l0.313,105.595
				C1391.584,2947.302,1372.212,2964.413,1348.538,2964.083z"/>
			<circle style="fill:#BDD0FB;" cx="891.373" cy="2209.048" r="16.534"/>
			<circle style="fill:#BDD0FB;" cx="946.485" cy="2210.642" r="16.534"/>
			<circle style="fill:#BDD0FB;" cx="997.923" cy="2213.704" r="16.534"/>
		</g>
	</g>
</g>
</svg>
